<?xml version="1.0" standalone="no"?><!DOCTYPE svg PUBLIC "-//W3C//DTD SVG 1.1//EN" "http://www.w3.org/Graphics/SVG/1.1/DTD/svg11.dtd"><svg t="1748511521983" class="icon" viewBox="0 0 1024 1024" version="1.1" xmlns="http://www.w3.org/2000/svg" p-id="13528" xmlns:xlink="http://www.w3.org/1999/xlink" width="128" height="128"><path d="M908.33 505.88L555.82 147.91l-23.67-24.27c-5.46-5.46-12.74-8.49-20.02-8.49-7.89 0-15.17 3.03-20.02 8.49L115.93 505.28c-16.99 16.99-21.84 42.47-12.74 64.92 9.1 21.84 30.95 36.4 54.61 36.4h38.83v301.55h631.62V607.21h39.44c15.78 0 30.34-6.07 41.26-16.99 21.83-23.66 21.83-60.67-0.62-84.34zM562.49 842.02H460.56v-188.7H563.1v188.7h-0.61zM761.5 540.47v301.55H621.34V630.87c0-9.71-3.64-19.42-10.31-26.09s-16.38-10.92-26.09-10.92H438.71c-9.71 0-18.81 4.25-26.09 10.92-6.67 6.67-10.92 16.38-10.32 26.09v211.15H261.54V540.47h-87.98l337.96-342.2 21.24 21.84 316.72 320.97-87.98-0.61z m0 0" p-id="13529" fill="#309fd9"></path></svg>