<?xml version="1.0" standalone="no"?><!DOCTYPE svg PUBLIC "-//W3C//DTD SVG 1.1//EN" "http://www.w3.org/Graphics/SVG/1.1/DTD/svg11.dtd"><svg t="1748583984714" class="icon" viewBox="0 0 1024 1024" version="1.1" xmlns="http://www.w3.org/2000/svg" p-id="5065" xmlns:xlink="http://www.w3.org/1999/xlink" width="128" height="128"><path d="M511.5 551.6c-58.8 0-106.6-47.8-106.6-106.6s47.8-106.6 106.6-106.6S618.1 386.3 618.1 445s-47.8 106.6-106.6 106.6z m0-183.2c-42.2 0-76.6 34.4-76.6 76.6s34.4 76.6 76.6 76.6 76.6-34.4 76.6-76.6-34.4-76.6-76.6-76.6z" fill="#333333" p-id="5066"></path><path d="M511.5 822c-15.5 0-30-5.9-40.6-16.6-40.3-40.3-86.7-88.3-126.7-146.8-50.9-74.5-76.7-146.3-76.7-213.6 0-65.2 25.4-126.4 71.5-172.5S446.4 201 511.5 201s126.4 25.4 172.5 71.5 71.5 107.4 71.5 172.5c0 157-137.4 294.4-203.4 360.4-10.6 10.7-25.1 16.6-40.6 16.6z m0-591c-118 0-214 96-214 214 0 144.6 131.4 276 194.6 339.2 5 5 11.9 7.8 19.4 7.8s14.4-2.8 19.4-7.8C594.1 721 725.5 589.6 725.5 445c0-118-96-214-214-214z" fill="#333333" p-id="5067"></path></svg>